<?xml version="1.0" encoding="UTF-8" standalone="no"?><svg xmlns="http://www.w3.org/2000/svg" xmlns:xlink="http://www.w3.org/1999/xlink" contentScriptType="application/ecmascript" contentStyleType="text/css" height="315px" preserveAspectRatio="none" style="width:887px;height:315px;" version="1.1" viewBox="0 0 887 315" width="887px" zoomAndPan="magnify"><defs><filter height="300%" id="ficu6ytnaxonm" width="300%" x="-1" y="-1"><feGaussianBlur result="blurOut" stdDeviation="2.0"/><feColorMatrix in="blurOut" result="blurOut2" type="matrix" values="0 0 0 0 0 0 0 0 0 0 0 0 0 0 0 0 0 0 .4 0"/><feOffset dx="4.0" dy="4.0" in="blurOut2" result="blurOut3"/><feBlend in="SourceGraphic" in2="blurOut3" mode="normal"/></filter></defs><g><!--MD5=[3fd616f346a44cd59a91eb10b19e157c]
class User--><rect fill="#FEFECE" filter="url(#ficu6ytnaxonm)" height="112.0234" id="User" style="stroke: #A80036; stroke-width: 1.5;" width="181" x="257.5" y="122.5"/><ellipse cx="329.25" cy="138.5" fill="#ADD1B2" rx="11" ry="11" style="stroke: #A80036; stroke-width: 1.0;"/><path d="M331.5938,134.1719 L331.7656,134.25 C331.9844,133.9375 332.1875,133.8438 332.4844,133.8438 C332.7813,133.8438 333.0625,133.9844 333.2188,134.25 C333.3125,134.4063 333.3281,134.5313 333.3281,134.9688 L333.3281,136.3906 C333.3281,136.8125 333.2969,137 333.1875,137.1563 C333.0156,137.375 332.75,137.5156 332.4844,137.5156 C332.2656,137.5156 332.0313,137.4063 331.8906,137.2656 C331.75,137.1406 331.7188,137.0156 331.6563,136.6094 C331.5625,136.2031 331.3906,135.9844 330.9063,135.7031 C330.4375,135.4531 329.8281,135.2969 329.25,135.2969 C327.5156,135.2969 326.2656,136.6094 326.2656,138.3906 L326.2656,139.4844 C326.2656,141.1875 327.5625,142.2813 329.6094,142.2813 C330.375,142.2813 331.0625,142.1563 331.4844,141.8906 C331.6719,141.7969 331.6719,141.7969 332.125,141.3125 C332.3125,141.125 332.5156,141.0469 332.7344,141.0469 C333.2031,141.0469 333.5938,141.4375 333.5938,141.8906 C333.5938,142.2813 333.2656,142.7344 332.6875,143.1406 C331.9375,143.6875 330.7813,143.9844 329.5625,143.9844 C326.6719,143.9844 324.5625,142.0938 324.5625,139.5156 L324.5625,138.3906 C324.5625,135.6719 326.5625,133.5938 329.1875,133.5938 C330.0625,133.5938 330.6563,133.7344 331.5938,134.1719 Z "/><text fill="#000000" font-family="sans-serif" font-size="12" lengthAdjust="spacingAndGlyphs" textLength="29" x="349.75" y="142.6543">User</text><line style="stroke: #A80036; stroke-width: 1.5;" x1="258.5" x2="437.5" y1="154.5" y2="154.5"/><text fill="#000000" font-family="sans-serif" font-size="11" lengthAdjust="spacingAndGlyphs" textLength="62" x="263.5" y="168.7104">int account</text><text fill="#000000" font-family="sans-serif" font-size="11" lengthAdjust="spacingAndGlyphs" textLength="35" x="263.5" y="181.5151">int pin</text><text fill="#000000" font-family="sans-serif" font-size="11" lengthAdjust="spacingAndGlyphs" textLength="164" x="263.5" y="194.3198">BankAccount savingsAccount</text><text fill="#000000" font-family="sans-serif" font-size="11" lengthAdjust="spacingAndGlyphs" textLength="169" x="263.5" y="207.1245">BankAccount checkingAccount</text><text fill="#000000" font-family="sans-serif" font-size="11" lengthAdjust="spacingAndGlyphs" textLength="94" x="263.5" y="219.9292">boolean isAdmin</text><line style="stroke: #A80036; stroke-width: 1.5;" x1="258.5" x2="437.5" y1="226.5234" y2="226.5234"/><!--MD5=[3b0e42168dad91672a2b1c2b0678530e]
class BankAccount--><rect fill="#FEFECE" filter="url(#ficu6ytnaxonm)" height="99.2188" id="BankAccount" style="stroke: #A80036; stroke-width: 1.5;" width="163" x="473.5" y="129"/><ellipse cx="510.55" cy="145" fill="#A9DCDF" rx="11" ry="11" style="stroke: #A80036; stroke-width: 1.0;"/><path d="M512.1281,146.8125 L508.0813,146.8125 L507.6906,147.7969 L508.0813,147.7969 C508.5344,147.7969 508.675,147.8281 508.8469,147.9531 C509.0656,148.125 509.1906,148.375 509.1906,148.6563 C509.1906,148.9375 509.05,149.2344 508.7844,149.375 C508.6594,149.4688 508.4406,149.5 508.0813,149.5 L505.8156,149.5 C505.0656,149.5 504.6906,149.2188 504.6906,148.6563 C504.6906,148.3594 504.8469,148.0781 505.0969,147.9219 C505.2531,147.8125 505.4094,147.7969 505.8313,147.7969 L508.4719,141.2813 L507.3938,141.2813 C506.9563,141.2813 506.7844,141.25 506.6125,141.1406 C506.3938,140.9688 506.2531,140.7188 506.2531,140.4375 C506.2531,140.1563 506.4094,139.875 506.6594,139.7031 C506.8156,139.6094 506.9406,139.5938 507.3938,139.5938 L511.0656,139.5938 L514.4563,147.7969 C514.925,147.7969 515.0813,147.8281 515.2531,147.9688 C515.4719,148.125 515.6125,148.375 515.6125,148.6563 C515.6125,148.9375 515.4563,149.2344 515.2063,149.375 C515.0656,149.4688 514.8469,149.5 514.4875,149.5 L512.1281,149.5 C511.7063,149.5 511.5031,149.4531 511.3625,149.3281 C511.1438,149.1719 511.0031,148.9219 511.0031,148.6563 C511.0031,148.3594 511.1594,148.0781 511.4094,147.9219 C511.5656,147.8125 511.675,147.7969 512.1281,147.7969 L512.5188,147.7969 Z M511.425,145.1094 L510.0969,141.8438 L508.7531,145.1094 Z "/><text fill="#000000" font-family="sans-serif" font-size="12" font-style="italic" lengthAdjust="spacingAndGlyphs" textLength="82" x="529.45" y="149.1543">BankAccount</text><line style="stroke: #A80036; stroke-width: 1.5;" x1="474.5" x2="635.5" y1="161" y2="161"/><text fill="#000000" font-family="sans-serif" font-size="11" lengthAdjust="spacingAndGlyphs" textLength="86" x="479.5" y="175.2104">double balance</text><line style="stroke: #A80036; stroke-width: 1.5;" x1="474.5" x2="635.5" y1="181.8047" y2="181.8047"/><text fill="#000000" font-family="sans-serif" font-size="11" lengthAdjust="spacingAndGlyphs" textLength="151" x="479.5" y="196.0151">void depoistMoney(double)</text><text fill="#000000" font-family="sans-serif" font-size="11" lengthAdjust="spacingAndGlyphs" textLength="137" x="479.5" y="208.8198">void drawMoney(double)</text><text fill="#000000" font-family="sans-serif" font-size="11" lengthAdjust="spacingAndGlyphs" textLength="109" x="479.5" y="221.6245">String getBalance()</text><!--MD5=[cdd82925de29a04f59c6897f1e4e4dde]
class Savings--><rect fill="#FEFECE" filter="url(#ficu6ytnaxonm)" height="60.8047" id="Savings" style="stroke: #A80036; stroke-width: 1.5;" width="80" x="796" y="148"/><ellipse cx="811" cy="164" fill="#ADD1B2" rx="11" ry="11" style="stroke: #A80036; stroke-width: 1.0;"/><path d="M813.3438,159.6719 L813.5156,159.75 C813.7344,159.4375 813.9375,159.3438 814.2344,159.3438 C814.5313,159.3438 814.8125,159.4844 814.9688,159.75 C815.0625,159.9063 815.0781,160.0313 815.0781,160.4688 L815.0781,161.8906 C815.0781,162.3125 815.0469,162.5 814.9375,162.6563 C814.7656,162.875 814.5,163.0156 814.2344,163.0156 C814.0156,163.0156 813.7813,162.9063 813.6406,162.7656 C813.5,162.6406 813.4688,162.5156 813.4063,162.1094 C813.3125,161.7031 813.1406,161.4844 812.6563,161.2031 C812.1875,160.9531 811.5781,160.7969 811,160.7969 C809.2656,160.7969 808.0156,162.1094 808.0156,163.8906 L808.0156,164.9844 C808.0156,166.6875 809.3125,167.7813 811.3594,167.7813 C812.125,167.7813 812.8125,167.6563 813.2344,167.3906 C813.4219,167.2969 813.4219,167.2969 813.875,166.8125 C814.0625,166.625 814.2656,166.5469 814.4844,166.5469 C814.9531,166.5469 815.3438,166.9375 815.3438,167.3906 C815.3438,167.7813 815.0156,168.2344 814.4375,168.6406 C813.6875,169.1875 812.5313,169.4844 811.3125,169.4844 C808.4219,169.4844 806.3125,167.5938 806.3125,165.0156 L806.3125,163.8906 C806.3125,161.1719 808.3125,159.0938 810.9375,159.0938 C811.8125,159.0938 812.4063,159.2344 813.3438,159.6719 Z "/><text fill="#000000" font-family="sans-serif" font-size="12" lengthAdjust="spacingAndGlyphs" textLength="48" x="825" y="168.1543">Savings</text><line style="stroke: #A80036; stroke-width: 1.5;" x1="797" x2="875" y1="180" y2="180"/><text fill="#000000" font-family="sans-serif" font-size="11" lengthAdjust="spacingAndGlyphs" textLength="64" x="802" y="194.2104">void intrest</text><line style="stroke: #A80036; stroke-width: 1.5;" x1="797" x2="875" y1="200.8047" y2="200.8047"/><!--MD5=[6e484b7c08bbd1cfe8aa4e048ce9acac]
class Checking--><rect fill="#FEFECE" filter="url(#ficu6ytnaxonm)" height="48" id="Checking" style="stroke: #A80036; stroke-width: 1.5;" width="89" x="671.5" y="154.5"/><ellipse cx="686.5" cy="170.5" fill="#ADD1B2" rx="11" ry="11" style="stroke: #A80036; stroke-width: 1.0;"/><path d="M688.8438,166.1719 L689.0156,166.25 C689.2344,165.9375 689.4375,165.8438 689.7344,165.8438 C690.0313,165.8438 690.3125,165.9844 690.4688,166.25 C690.5625,166.4063 690.5781,166.5313 690.5781,166.9688 L690.5781,168.3906 C690.5781,168.8125 690.5469,169 690.4375,169.1563 C690.2656,169.375 690,169.5156 689.7344,169.5156 C689.5156,169.5156 689.2813,169.4063 689.1406,169.2656 C689,169.1406 688.9688,169.0156 688.9063,168.6094 C688.8125,168.2031 688.6406,167.9844 688.1563,167.7031 C687.6875,167.4531 687.0781,167.2969 686.5,167.2969 C684.7656,167.2969 683.5156,168.6094 683.5156,170.3906 L683.5156,171.4844 C683.5156,173.1875 684.8125,174.2813 686.8594,174.2813 C687.625,174.2813 688.3125,174.1563 688.7344,173.8906 C688.9219,173.7969 688.9219,173.7969 689.375,173.3125 C689.5625,173.125 689.7656,173.0469 689.9844,173.0469 C690.4531,173.0469 690.8438,173.4375 690.8438,173.8906 C690.8438,174.2813 690.5156,174.7344 689.9375,175.1406 C689.1875,175.6875 688.0313,175.9844 686.8125,175.9844 C683.9219,175.9844 681.8125,174.0938 681.8125,171.5156 L681.8125,170.3906 C681.8125,167.6719 683.8125,165.5938 686.4375,165.5938 C687.3125,165.5938 687.9063,165.7344 688.8438,166.1719 Z "/><text fill="#000000" font-family="sans-serif" font-size="12" lengthAdjust="spacingAndGlyphs" textLength="57" x="700.5" y="174.6543">Checking</text><line style="stroke: #A80036; stroke-width: 1.5;" x1="672.5" x2="759.5" y1="186.5" y2="186.5"/><line style="stroke: #A80036; stroke-width: 1.5;" x1="672.5" x2="759.5" y1="194.5" y2="194.5"/><!--MD5=[549ff358cecbd916f4ce2511ce44e009]
class ATM--><rect fill="#FEFECE" filter="url(#ficu6ytnaxonm)" height="252.875" id="ATM" style="stroke: #A80036; stroke-width: 1.5;" width="216" x="6" y="52"/><ellipse cx="97.25" cy="68" fill="#ADD1B2" rx="11" ry="11" style="stroke: #A80036; stroke-width: 1.0;"/><path d="M99.5938,63.6719 L99.7656,63.75 C99.9844,63.4375 100.1875,63.3438 100.4844,63.3438 C100.7813,63.3438 101.0625,63.4844 101.2188,63.75 C101.3125,63.9063 101.3281,64.0313 101.3281,64.4688 L101.3281,65.8906 C101.3281,66.3125 101.2969,66.5 101.1875,66.6563 C101.0156,66.875 100.75,67.0156 100.4844,67.0156 C100.2656,67.0156 100.0313,66.9063 99.8906,66.7656 C99.75,66.6406 99.7188,66.5156 99.6563,66.1094 C99.5625,65.7031 99.3906,65.4844 98.9063,65.2031 C98.4375,64.9531 97.8281,64.7969 97.25,64.7969 C95.5156,64.7969 94.2656,66.1094 94.2656,67.8906 L94.2656,68.9844 C94.2656,70.6875 95.5625,71.7813 97.6094,71.7813 C98.375,71.7813 99.0625,71.6563 99.4844,71.3906 C99.6719,71.2969 99.6719,71.2969 100.125,70.8125 C100.3125,70.625 100.5156,70.5469 100.7344,70.5469 C101.2031,70.5469 101.5938,70.9375 101.5938,71.3906 C101.5938,71.7813 101.2656,72.2344 100.6875,72.6406 C99.9375,73.1875 98.7813,73.4844 97.5625,73.4844 C94.6719,73.4844 92.5625,71.5938 92.5625,69.0156 L92.5625,67.8906 C92.5625,65.1719 94.5625,63.0938 97.1875,63.0938 C98.0625,63.0938 98.6563,63.2344 99.5938,63.6719 Z "/><text fill="#000000" font-family="sans-serif" font-size="12" lengthAdjust="spacingAndGlyphs" textLength="25" x="117.75" y="72.1543">ATM</text><line style="stroke: #A80036; stroke-width: 1.5;" x1="7" x2="221" y1="84" y2="84"/><text fill="#000000" font-family="sans-serif" font-size="11" lengthAdjust="spacingAndGlyphs" textLength="132" x="12" y="98.2104">ArrayList&lt;User&gt; users</text><line style="stroke: #A80036; stroke-width: 1.5;" x1="7" x2="221" y1="104.8047" y2="104.8047"/><ellipse cx="17" cy="115.8047" fill="#84BE84" rx="3" ry="3" style="stroke: #038048; stroke-width: 1.0;"/><text fill="#000000" font-family="sans-serif" font-size="11" lengthAdjust="spacingAndGlyphs" textLength="35" x="26" y="119.0151">start()</text><ellipse cx="17" cy="128.6094" fill="#84BE84" rx="3" ry="3" style="stroke: #038048; stroke-width: 1.0;"/><text fill="#000000" font-family="sans-serif" font-size="11" lengthAdjust="spacingAndGlyphs" textLength="108" x="26" y="131.8198">handleAdminWork()</text><rect fill="#F24D5C" height="6" style="stroke: #C82930; stroke-width: 1.0;" width="6" x="14" y="138.4141"/><text fill="#000000" font-family="sans-serif" font-size="11" lengthAdjust="spacingAndGlyphs" textLength="56" x="26" y="144.6245">addUser()</text><rect fill="#F24D5C" height="6" style="stroke: #C82930; stroke-width: 1.0;" width="6" x="14" y="151.2188"/><text fill="#000000" font-family="sans-serif" font-size="11" lengthAdjust="spacingAndGlyphs" textLength="70" x="26" y="157.4292">deleteUser()</text><rect fill="#F24D5C" height="6" style="stroke: #C82930; stroke-width: 1.0;" width="6" x="14" y="164.0234"/><text fill="#000000" font-family="sans-serif" font-size="11" lengthAdjust="spacingAndGlyphs" textLength="59" x="26" y="170.2339">listUsers()</text><rect fill="#F24D5C" height="6" style="stroke: #C82930; stroke-width: 1.0;" width="6" x="14" y="176.8281"/><text fill="#000000" font-family="sans-serif" font-size="11" lengthAdjust="spacingAndGlyphs" textLength="75" x="26" y="183.0386">applyIntrest()</text><text fill="#000000" font-family="sans-serif" font-size="11" lengthAdjust="spacingAndGlyphs" textLength="0" x="30" y="195.8433"/><ellipse cx="17" cy="205.4375" fill="#84BE84" rx="3" ry="3" style="stroke: #038048; stroke-width: 1.0;"/><text fill="#000000" font-family="sans-serif" font-size="11" lengthAdjust="spacingAndGlyphs" textLength="100" x="26" y="208.6479">handleUserWork()</text><rect fill="#F24D5C" height="6" style="stroke: #C82930; stroke-width: 1.0;" width="6" x="14" y="215.2422"/><text fill="#000000" font-family="sans-serif" font-size="11" lengthAdjust="spacingAndGlyphs" textLength="166" x="26" y="221.4526">getCheckingBalance(account)</text><rect fill="#F24D5C" height="6" style="stroke: #C82930; stroke-width: 1.0;" width="6" x="14" y="228.0469"/><text fill="#000000" font-family="sans-serif" font-size="11" lengthAdjust="spacingAndGlyphs" textLength="173" x="26" y="234.2573">depositeIntoChecking(account)</text><rect fill="#F24D5C" height="6" style="stroke: #C82930; stroke-width: 1.0;" width="6" x="14" y="240.8516"/><text fill="#000000" font-family="sans-serif" font-size="11" lengthAdjust="spacingAndGlyphs" textLength="183" x="26" y="247.062">withdrawFromChecking(account)</text><text fill="#000000" font-family="sans-serif" font-size="11" lengthAdjust="spacingAndGlyphs" textLength="0" x="30" y="259.8667"/><rect fill="#F24D5C" height="6" style="stroke: #C82930; stroke-width: 1.0;" width="6" x="14" y="266.4609"/><text fill="#000000" font-family="sans-serif" font-size="11" lengthAdjust="spacingAndGlyphs" textLength="160" x="26" y="272.6714">getSavingsBalance(account)</text><rect fill="#F24D5C" height="6" style="stroke: #C82930; stroke-width: 1.0;" width="6" x="14" y="279.2656"/><text fill="#000000" font-family="sans-serif" font-size="11" lengthAdjust="spacingAndGlyphs" textLength="190" x="26" y="285.4761">depositeSavingChecking(account)</text><rect fill="#F24D5C" height="6" style="stroke: #C82930; stroke-width: 1.0;" width="6" x="14" y="292.0703"/><text fill="#000000" font-family="sans-serif" font-size="11" lengthAdjust="spacingAndGlyphs" textLength="177" x="26" y="298.2808">withdrawFromSavings(account)</text><!--MD5=[98d8cfa7401d040ef6be181de9bfc870]
reverse link BankAccount to Savings--><path d="M586.426,110.96 C605.835,77.67 634.213,40.727 671.5,22 C706.848,4.247 726.2,2.299 760.5,22 C805.624,47.918 824.217,109.965 831.545,147.684 " fill="none" id="BankAccount&lt;-Savings" style="stroke: #A80036; stroke-width: 1.0;"/><polygon fill="none" points="592.32,114.77,576.566,128.941,580.045,108.039,592.32,114.77" style="stroke: #A80036; stroke-width: 1.0;"/><!--MD5=[423ebc69a270a8a79fa3c0e7e2289958]
reverse link BankAccount to Checking--><path d="M656.801,178.5 C661.676,178.5 666.551,178.5 671.426,178.5 " fill="none" id="BankAccount&lt;-Checking" style="stroke: #A80036; stroke-width: 1.0;"/><polygon fill="none" points="656.758,185.5,636.758,178.5,656.758,171.5,656.758,185.5" style="stroke: #A80036; stroke-width: 1.0;"/><!--MD5=[3afea21fe53824858459031aea354ac8]
link User to BankAccount--><path d="M438.562,178.5 C448.375,178.5 458.187,178.5 467.999,178.5 " fill="none" id="User-&gt;BankAccount" style="stroke: #A80036; stroke-width: 1.0;"/><polygon fill="#A80036" points="473.13,178.5,464.13,174.5,468.13,178.5,464.13,182.5,473.13,178.5" style="stroke: #A80036; stroke-width: 1.0;"/><!--MD5=[fc0df48d15174b0ca68a5cfbcf6c9d4a]
link ATM to User--><path d="M222.316,178.5 C232.211,178.5 242.105,178.5 252,178.5 " fill="none" id="ATM-&gt;User" style="stroke: #A80036; stroke-width: 1.0;"/><polygon fill="#A80036" points="257.174,178.5,248.174,174.5,252.174,178.5,248.174,182.5,257.174,178.5" style="stroke: #A80036; stroke-width: 1.0;"/><!--MD5=[4c85dae59ba21d15985af170cadad42d]
@startuml
class User{
    int account
    int pin
    BankAccount savingsAccount
    BankAccount checkingAccount
    boolean isAdmin
    
    
}

abstract class BankAccount {
    double balance
    void depoistMoney(double)
    void drawMoney(double)
    String getBalance()
    
}

class Savings{
    void intrest
    
}

class Checking{
}

class ATM{
    ArrayList<User> users
    
    + start()
    + handleAdminWork()
    - addUser()
    - deleteUser()
    - listUsers()
    - applyIntrest()
    
    + handleUserWork()
    - getCheckingBalance(account)
    - depositeIntoChecking(account)
    - withdrawFromChecking(account)
    
    - getSavingsBalance(account)
    - depositeSavingChecking(account)
    - withdrawFromSavings(account)
    
}

BankAccount <|- Savings
BankAccount <|- Checking

User -> BankAccount
ATM -> User
@enduml

PlantUML version 1.2020.02(Sun Mar 01 10:22:07 UTC 2020)
(GPL source distribution)
Java Runtime: Java(TM) SE Runtime Environment
JVM: Java HotSpot(TM) 64-Bit Server VM
Java Version: 1.7.0_25-b15
Operating System: Linux
Default Encoding: UTF-8
Language: en
Country: US
--></g></svg>